<svg xmlns="http://www.w3.org/2000/svg" xml:space="preserve" x="0" y="0" style="enable-background:new 0 0 320 240" version="1.1" viewBox="0 0 320 240">
  <style>
    .st1{fill:#fff}
  </style>
  <g id="logo">
    <path d="M120.5 102.2h19.9v3.5h-15.8v10.9H138v3.5h-13.3v14.5h-4.2v-32.4zM142 122.5c0-7.8 5.8-12.6 12.3-12.6 6.9 0 11 4.5 11 11.3 0 .9-.1 1.8-.2 2.5h-20.3v-3.2h17.9l-1 1.1c0-5.7-2.8-8.5-7.2-8.5s-8.3 3.4-8.3 9.3c0 6.2 4.1 9.4 9.4 9.4 2.9 0 5.1-.9 7.3-2.3l1.5 2.7c-2.4 1.6-5.4 2.9-9.3 2.9-7.4.1-13.1-4.6-13.1-12.6zM173.5 125.2v-11.4h-6.8v-3.1l7-.2.5-7.7h3.4v7.7h11.8v3.3h-11.8v11.4c0 4.3 1.4 6.5 6.1 6.5 2.2 0 4-.4 5.7-1.1l.9 3c-2.2.8-4.5 1.4-7.5 1.4-7 .2-9.3-3.8-9.3-9.8zM192 122.6c0-8.1 6.1-12.7 13.4-12.7 3.9 0 6.8 1.6 8.8 3.5l-2 2.6c-2-1.7-4.1-2.7-6.6-2.7-5.5 0-9.3 3.7-9.3 9.2 0 5.5 3.8 9.1 9.2 9.1 3 0 5.4-1.3 7.4-3l1.8 2.7c-2.7 2.4-6 3.8-9.5 3.8-7.6.1-13.2-4.5-13.2-12.5zM217.4 99.4h4.1v9.6l-.2 5.7h.1c2.4-2.7 5.2-4.7 8.9-4.7 5.7 0 8.3 3.4 8.3 9.7v14.9h-4.1v-14.4c0-4.5-1.6-6.7-5.5-6.7-2.9 0-4.8 1.4-7.6 4.3v16.8h-4.1V99.4zM243 133.2h8.5v-29.9H243V102h18.6v1.4h-8.5v29.9h8.5v1.4H243v-1.5zM273.7 125.9v-13.5h-7.3v-1.2l7.3-.2.2-7.9h1.3v7.9h13v1.4h-13v13.7c0 4.7 1.3 7.7 6.8 7.7 2.6 0 4.5-.5 6.5-1.3l.5 1.2c-2.2.9-4.3 1.5-7.1 1.5-6.3 0-8.2-3.8-8.2-9.3z"/>
    <g id="form">
      <path id="bg" d="M99.9 155.9H35c-2.2 0-4-1.8-4-4V87c0-2.2 1.8-4 4-4h64.9c2.2 0 4 1.8 4 4v64.9c0 2.2-1.8 4-4 4z" style="fill:#ededed"/>
      <g id="inputs">
        <path d="M95.9 105.8H39c-1.1 0-2-.9-2-2V93.5c0-1.1.9-2 2-2h56.9c1.1 0 2 .9 2 2v10.3c0 1.1-.9 2-2 2zM95.9 126.7H39c-1.1 0-2-.9-2-2v-10.3c0-1.1.9-2 2-2h56.9c1.1 0 2 .9 2 2v10.3c0 1.1-.9 2-2 2z" class="st1"/>
        <path d="M65.4 147.6H39c-1.1 0-2-.9-2-2v-10.3c0-1.1.9-2 2-2h26.4c1.1 0 2 .9 2 2v10.3c0 1.1-.9 2-2 2z" style="fill:#0ea5e9"/>
      </g>
    </g>
  </g>
</svg>
